<?xml version="1.0" standalone="no"?>
<!DOCTYPE svg PUBLIC "-//W3C//DTD SVG 20010904//EN"
 "http://www.w3.org/TR/2001/REC-SVG-20010904/DTD/svg10.dtd">
<svg version="1.0" xmlns="http://www.w3.org/2000/svg"
 width="1280.000000pt" height="720.000000pt" viewBox="0 0 1280.000000 720.000000"
 preserveAspectRatio="xMidYMid meet">

<g transform="translate(0.000000,720.000000) scale(0.100000,-0.100000)"
fill="#000000" stroke="none">
<path d="M4280 4512 c0 -256 3 -322 13 -316 6 5 31 21 55 37 65 44 147 69 245
75 l87 5 0 61 0 61 -200 200 -200 200 0 -323z"/>
<path d="M8600 3937 l0 -897 -190 0 -190 0 0 403 0 402 -160 160 c-153 152
-159 157 -131 105 59 -109 61 -131 61 -622 l0 -448 -190 0 -190 0 0 425 c0
367 -2 430 -16 465 -21 51 -60 79 -123 87 -65 7 -131 -23 -163 -75 -23 -37
-23 -39 -26 -469 l-3 -433 -189 0 -189 0 -3 438 c-3 396 -5 440 -21 469 -23
42 -53 61 -108 69 -57 8 -114 -8 -167 -47 l-42 -31 0 -449 0 -449 -190 0 -190
0 0 23 c0 13 -13 36 -30 52 l-30 29 0 243 0 243 30 0 30 0 0 248 0 248 -30 29
c-21 20 -30 38 -30 59 0 27 -27 58 -200 231 l-200 200 0 -178 0 -177 155 0
155 0 0 -135 0 -135 -155 0 -155 0 0 -312 c0 -278 2 -317 18 -348 16 -33 19
-35 67 -33 28 1 67 5 87 8 l37 7 66 -102 c36 -56 64 -108 62 -114 -8 -21 -122
-75 -193 -92 -48 -11 -102 -15 -174 -12 -90 3 -113 7 -159 30 -52 25 -44 17
140 -168 247 -248 266 -259 444 -259 91 0 133 5 175 19 61 20 170 75 170 85 0
4 -11 23 -25 43 -14 20 -25 39 -25 41 0 3 39 -35 87 -84 l87 -89 188 0 188 0
0 172 0 173 173 -173 172 -172 188 0 187 0 0 167 0 168 168 -168 167 -167 188
0 187 0 0 117 0 118 118 -118 117 -117 188 0 187 0 0 302 0 303 188 -188 187
-187 483 252 482 251 0 76 0 76 -195 195 -195 195 0 -70 0 -70 -483 -253
c-266 -138 -489 -252 -495 -252 -9 0 -12 39 -12 133 0 113 3 139 20 172 18 36
20 59 20 275 0 216 -2 239 -20 275 -17 33 -20 59 -20 173 0 129 1 134 20 129
11 -3 20 -2 20 2 0 3 -90 96 -200 206 l-200 200 0 -898z"/>
<path d="M3538 4272 c-3 -136 -4 -143 -28 -166 -25 -24 -366 -211 -430 -236
-53 -20 -54 -26 -8 -39 56 -17 419 -215 444 -242 17 -18 19 -40 22 -170 3
-108 0 -149 -8 -149 -10 0 -227 112 -840 432 l-115 60 195 -195 195 -196 480
-250 480 -251 5 70 5 70 185 -185 185 -185 187 0 188 0 0 192 0 193 193 -193
192 -192 188 0 187 0 0 239 c0 205 -2 240 -16 252 -24 20 -60 98 -73 157 -6
30 -11 146 -11 264 l0 211 -195 196 c-192 193 -195 195 -165 136 55 -109 60
-156 60 -627 l0 -428 -190 0 -189 0 -3 428 c-3 404 -4 429 -23 466 -26 51 -62
77 -116 83 -60 7 -115 -10 -183 -54 l-56 -37 0 -443 0 -443 -190 0 -190 0 0
83 0 82 -155 155 c-85 85 -155 158 -155 161 0 4 70 44 155 90 l155 83 0 180 0
181 -179 179 -179 179 -4 -141z"/>
<path d="M6514 4218 c4 -10 8 -26 11 -35 4 -12 8 -14 17 -5 9 9 7 17 -10 35
-18 17 -22 18 -18 5z"/>
<path d="M7122 4152 c23 -42 38 -53 38 -29 0 7 -14 26 -30 42 l-31 30 23 -43z"/>
<path d="M9166 3930 l152 -153 33 21 c19 11 53 26 77 33 46 13 45 19 -8 39
-19 8 -84 40 -145 73 -60 33 -144 77 -185 99 l-75 41 151 -153z"/>
<path d="M5272 3963 c35 -35 64 -63 65 -63 2 0 3 27 3 59 l0 59 -65 4 -65 3
62 -62z"/>
</g>
</svg>
